<svg xmlns="http://www.w3.org/2000/svg" xmlns:xlink="http://www.w3.org/1999/xlink" width="500" zoomAndPan="magnify" viewBox="0 0 375 374.999991" height="500" preserveAspectRatio="xMidYMid meet" version="1.0"><defs><g/></defs><g fill="#ce0000" fill-opacity="1"><g transform="translate(22.395487, 215.739957)"><g><path d="M 42.71875 13.390625 C 37.988281 13.390625 34.0625 12.25 30.9375 9.96875 C 27.8125 7.6875 25.710938 4.507812 24.640625 0.4375 C 20.546875 -0.144531 16.972656 -1.53125 13.921875 -3.71875 C 10.867188 -5.914062 8.488281 -8.953125 6.78125 -12.828125 C 5.082031 -16.703125 4.234375 -21.382812 4.234375 -26.875 C 4.234375 -33.03125 5.296875 -38.171875 7.421875 -42.296875 C 9.554688 -46.429688 12.503906 -49.503906 16.265625 -51.515625 C 20.023438 -53.523438 24.367188 -54.53125 29.296875 -54.53125 C 34.222656 -54.53125 38.5625 -53.53125 42.3125 -51.53125 C 46.0625 -49.53125 48.992188 -46.457031 51.109375 -42.3125 C 53.234375 -38.175781 54.296875 -33.03125 54.296875 -26.875 C 54.296875 -18.832031 52.570312 -12.660156 49.125 -8.359375 C 45.6875 -4.054688 40.859375 -1.378906 34.640625 -0.328125 L 34.453125 0.40625 C 35.210938 1.707031 36.34375 2.707031 37.84375 3.40625 C 39.351562 4.101562 41.113281 4.453125 43.125 4.453125 C 44.738281 4.453125 46.195312 4.242188 47.5 3.828125 L 48.234375 3.96875 L 49.75 12.28125 C 48.957031 12.570312 47.898438 12.828125 46.578125 13.046875 C 45.253906 13.273438 43.96875 13.390625 42.71875 13.390625 Z M 29.296875 -8.453125 C 33.859375 -8.453125 37.335938 -9.914062 39.734375 -12.84375 C 42.140625 -15.78125 43.34375 -20.457031 43.34375 -26.875 C 43.34375 -33.300781 42.140625 -37.984375 39.734375 -40.921875 C 37.335938 -43.859375 33.859375 -45.328125 29.296875 -45.328125 C 24.710938 -45.328125 21.210938 -43.859375 18.796875 -40.921875 C 16.390625 -37.984375 15.1875 -33.300781 15.1875 -26.875 C 15.1875 -20.457031 16.390625 -15.78125 18.796875 -12.84375 C 21.210938 -9.914062 24.710938 -8.453125 29.296875 -8.453125 Z M 29.296875 -8.453125 "/></g></g></g><g fill="#ce0000" fill-opacity="1"><g transform="translate(80.965638, 215.739957)"><g><path d="M 18.5625 0.765625 C 14.007812 0.765625 10.644531 -0.472656 8.46875 -2.953125 C 6.300781 -5.441406 5.21875 -9.015625 5.21875 -13.671875 L 5.21875 -40.546875 L 15.40625 -40.546875 L 15.40625 -14.96875 C 15.40625 -12.488281 15.9375 -10.675781 17 -9.53125 C 18.070312 -8.394531 19.722656 -7.828125 21.953125 -7.828125 C 24.765625 -7.828125 26.957031 -8.753906 28.53125 -10.609375 C 30.101562 -12.460938 30.890625 -15.375 30.890625 -19.34375 L 30.890625 -40.546875 L 41.0625 -40.546875 L 41.0625 0 L 31.28125 0 L 31.28125 -5.953125 L 30.515625 -6.140625 C 29.210938 -3.804688 27.625 -2.070312 25.75 -0.9375 C 23.875 0.195312 21.476562 0.765625 18.5625 0.765625 Z M 18.5625 0.765625 "/></g></g></g><g fill="#ce0000" fill-opacity="1"><g transform="translate(127.880579, 215.739957)"><g><path d="M 28.34375 0.765625 C 23.175781 0.765625 19.328125 -1.164062 16.796875 -5.03125 L 16.03125 -4.890625 L 16.03125 0 L 5.84375 0 L 5.84375 -56.84375 L 16.03125 -56.84375 L 16.03125 -35.765625 L 16.796875 -35.625 C 18.191406 -37.5625 19.835938 -38.992188 21.734375 -39.921875 C 23.640625 -40.859375 25.914062 -41.328125 28.5625 -41.328125 C 31.851562 -41.328125 34.722656 -40.550781 37.171875 -39 C 39.617188 -37.457031 41.53125 -35.113281 42.90625 -31.96875 C 44.28125 -28.820312 44.96875 -24.921875 44.96875 -20.265625 C 44.96875 -15.648438 44.253906 -11.765625 42.828125 -8.609375 C 41.410156 -5.460938 39.453125 -3.113281 36.953125 -1.5625 C 34.453125 -0.0078125 31.582031 0.765625 28.34375 0.765625 Z M 25.265625 -7.875 C 28.253906 -7.875 30.53125 -8.867188 32.09375 -10.859375 C 33.664062 -12.859375 34.453125 -15.992188 34.453125 -20.265625 C 34.453125 -24.546875 33.664062 -27.6875 32.09375 -29.6875 C 30.53125 -31.6875 28.253906 -32.6875 25.265625 -32.6875 C 22.390625 -32.6875 20.113281 -31.65625 18.4375 -29.59375 C 16.757812 -27.539062 15.921875 -24.429688 15.921875 -20.265625 C 15.921875 -16.097656 16.757812 -12.988281 18.4375 -10.9375 C 20.113281 -8.894531 22.390625 -7.875 25.265625 -7.875 Z M 25.265625 -7.875 "/></g></g></g><g fill="#ce0000" fill-opacity="1"><g transform="translate(176.450055, 215.739957)"><g><path d="M 40.078125 -17.984375 L 14.015625 -17.984375 C 14.304688 -14.453125 15.304688 -11.882812 17.015625 -10.28125 C 18.734375 -8.675781 21.078125 -7.875 24.046875 -7.875 C 26.367188 -7.875 28.253906 -8.304688 29.703125 -9.171875 C 31.148438 -10.046875 32.316406 -11.363281 33.203125 -13.125 L 33.96875 -13.125 L 40.734375 -8.78125 C 39.410156 -5.9375 37.410156 -3.632812 34.734375 -1.875 C 32.066406 -0.113281 28.503906 0.765625 24.046875 0.765625 C 19.859375 0.765625 16.238281 -0.0234375 13.1875 -1.609375 C 10.132812 -3.203125 7.78125 -5.570312 6.125 -8.71875 C 4.46875 -11.875 3.640625 -15.722656 3.640625 -20.265625 C 3.640625 -24.867188 4.507812 -28.75 6.25 -31.90625 C 7.988281 -35.070312 10.34375 -37.429688 13.3125 -38.984375 C 16.28125 -40.546875 19.613281 -41.328125 23.3125 -41.328125 C 29.039062 -41.328125 33.429688 -39.804688 36.484375 -36.765625 C 39.535156 -33.722656 41.0625 -29.265625 41.0625 -23.390625 C 41.0625 -21.253906 40.988281 -19.597656 40.84375 -18.421875 Z M 31.328125 -24.5625 C 31.222656 -27.644531 30.503906 -29.890625 29.171875 -31.296875 C 27.835938 -32.710938 25.882812 -33.421875 23.3125 -33.421875 C 18.164062 -33.421875 15.140625 -30.46875 14.234375 -24.5625 Z M 31.328125 -24.5625 "/></g></g></g><g fill="#545454" fill-opacity="1"><g transform="translate(220.51648, 215.739957)"><g><path d="M 23.828125 0.765625 C 20.097656 0.765625 16.78125 0.304688 13.875 -0.609375 C 10.96875 -1.523438 8.546875 -2.726562 6.609375 -4.21875 C 4.679688 -5.71875 3.203125 -7.363281 2.171875 -9.15625 L 8.015625 -16.28125 L 8.9375 -16.28125 C 10.550781 -13.882812 12.601562 -11.972656 15.09375 -10.546875 C 17.582031 -9.128906 20.492188 -8.421875 23.828125 -8.421875 C 26.671875 -8.421875 28.8125 -9.019531 30.25 -10.21875 C 31.695312 -11.414062 32.421875 -13.070312 32.421875 -15.1875 C 32.421875 -16.457031 32.1875 -17.519531 31.71875 -18.375 C 31.257812 -19.238281 30.488281 -19.976562 29.40625 -20.59375 C 28.332031 -21.207031 26.875 -21.734375 25.03125 -22.171875 L 18.125 -23.75 C 13.289062 -24.851562 9.691406 -26.6875 7.328125 -29.25 C 4.960938 -31.8125 3.78125 -35.140625 3.78125 -39.234375 C 3.78125 -42.265625 4.539062 -44.929688 6.0625 -47.234375 C 7.582031 -49.546875 9.796875 -51.335938 12.703125 -52.609375 C 15.609375 -53.890625 19.082031 -54.53125 23.125 -54.53125 C 27.269531 -54.53125 30.816406 -53.984375 33.765625 -52.890625 C 36.722656 -51.796875 39.21875 -50.125 41.25 -47.875 L 36 -40.65625 L 35.078125 -40.65625 C 33.554688 -42.25 31.8125 -43.441406 29.84375 -44.234375 C 27.882812 -45.035156 25.644531 -45.4375 23.125 -45.4375 C 20.207031 -45.4375 17.988281 -44.921875 16.46875 -43.890625 C 14.945312 -42.867188 14.1875 -41.453125 14.1875 -39.640625 C 14.1875 -37.941406 14.71875 -36.585938 15.78125 -35.578125 C 16.851562 -34.578125 18.703125 -33.796875 21.328125 -33.234375 L 28.390625 -31.765625 C 33.609375 -30.660156 37.394531 -28.789062 39.75 -26.15625 C 42.101562 -23.519531 43.28125 -20.082031 43.28125 -15.84375 C 43.28125 -12.488281 42.554688 -9.566406 41.109375 -7.078125 C 39.660156 -4.585938 37.476562 -2.65625 34.5625 -1.28125 C 31.644531 0.0820312 28.066406 0.765625 23.828125 0.765625 Z M 23.828125 0.765625 "/></g></g></g><g fill="#545454" fill-opacity="1"><g transform="translate(266.696076, 215.739957)"><g><path d="M 40.078125 -17.984375 L 14.015625 -17.984375 C 14.304688 -14.453125 15.304688 -11.882812 17.015625 -10.28125 C 18.734375 -8.675781 21.078125 -7.875 24.046875 -7.875 C 26.367188 -7.875 28.253906 -8.304688 29.703125 -9.171875 C 31.148438 -10.046875 32.316406 -11.363281 33.203125 -13.125 L 33.96875 -13.125 L 40.734375 -8.78125 C 39.410156 -5.9375 37.410156 -3.632812 34.734375 -1.875 C 32.066406 -0.113281 28.503906 0.765625 24.046875 0.765625 C 19.859375 0.765625 16.238281 -0.0234375 13.1875 -1.609375 C 10.132812 -3.203125 7.78125 -5.570312 6.125 -8.71875 C 4.46875 -11.875 3.640625 -15.722656 3.640625 -20.265625 C 3.640625 -24.867188 4.507812 -28.75 6.25 -31.90625 C 7.988281 -35.070312 10.34375 -37.429688 13.3125 -38.984375 C 16.28125 -40.546875 19.613281 -41.328125 23.3125 -41.328125 C 29.039062 -41.328125 33.429688 -39.804688 36.484375 -36.765625 C 39.535156 -33.722656 41.0625 -29.265625 41.0625 -23.390625 C 41.0625 -21.253906 40.988281 -19.597656 40.84375 -18.421875 Z M 31.328125 -24.5625 C 31.222656 -27.644531 30.503906 -29.890625 29.171875 -31.296875 C 27.835938 -32.710938 25.882812 -33.421875 23.3125 -33.421875 C 18.164062 -33.421875 15.140625 -30.46875 14.234375 -24.5625 Z M 31.328125 -24.5625 "/></g></g></g><g fill="#545454" fill-opacity="1"><g transform="translate(310.779954, 215.739957)"><g><path d="M 23.640625 0.765625 C 19.722656 0.765625 16.253906 -0.046875 13.234375 -1.671875 C 10.222656 -3.304688 7.867188 -5.703125 6.171875 -8.859375 C 4.484375 -12.023438 3.640625 -15.828125 3.640625 -20.265625 C 3.640625 -24.722656 4.484375 -28.53125 6.171875 -31.6875 C 7.867188 -34.851562 10.210938 -37.25 13.203125 -38.875 C 16.191406 -40.507812 19.609375 -41.328125 23.453125 -41.328125 C 32.003906 -41.328125 37.484375 -38.222656 39.890625 -32.015625 L 32.90625 -27.015625 L 32.140625 -27.015625 C 31.304688 -28.929688 30.21875 -30.351562 28.875 -31.28125 C 27.539062 -32.21875 25.734375 -32.6875 23.453125 -32.6875 C 20.515625 -32.6875 18.222656 -31.664062 16.578125 -29.625 C 14.941406 -27.59375 14.125 -24.472656 14.125 -20.265625 C 14.125 -16.097656 14.957031 -12.988281 16.625 -10.9375 C 18.289062 -8.894531 20.628906 -7.875 23.640625 -7.875 C 25.847656 -7.875 27.71875 -8.46875 29.25 -9.65625 C 30.78125 -10.84375 31.875 -12.550781 32.53125 -14.78125 L 33.3125 -14.859375 L 40.546875 -10.875 C 39.523438 -7.445312 37.617188 -4.648438 34.828125 -2.484375 C 32.046875 -0.316406 28.316406 0.765625 23.640625 0.765625 Z M 23.640625 0.765625 "/></g></g></g></svg>